<mxfile host="app.diagrams.net" modified="2020-11-03T06:07:42.676Z" agent="5.0 (Macintosh; Intel Mac OS X 10_15_7) AppleWebKit/537.36 (KHTML, like Gecko) Chrome/86.0.4240.111 Safari/537.36" etag="zI78J-X9NhJYiUd98XXe" version="13.8.6" type="github">
  <diagram id="64DtETHrr8Gni5vUCrlc" name="Page-1">
    <mxGraphModel dx="946" dy="583" grid="1" gridSize="10" guides="1" tooltips="1" connect="1" arrows="1" fold="1" page="1" pageScale="1" pageWidth="850" pageHeight="1100" math="0" shadow="0">
      <root>
        <mxCell id="0" />
        <mxCell id="1" parent="0" />
        <mxCell id="QapmDIWX8Hmy_j9o4d-7-2" value="" style="rounded=1;whiteSpace=wrap;html=1;" vertex="1" parent="1">
          <mxGeometry x="190" y="110" width="370" height="170" as="geometry" />
        </mxCell>
        <mxCell id="QapmDIWX8Hmy_j9o4d-7-1" value="项目中台" style="rounded=1;whiteSpace=wrap;html=1;" vertex="1" parent="1">
          <mxGeometry x="280" y="200" width="210" height="40" as="geometry" />
        </mxCell>
        <mxCell id="QapmDIWX8Hmy_j9o4d-7-3" value="平台&lt;br&gt;&lt;br&gt;&lt;br&gt;&lt;br&gt;&lt;br&gt;&lt;br&gt;&lt;br&gt;&lt;br&gt;&lt;br&gt;&lt;br&gt;" style="rounded=1;whiteSpace=wrap;html=1;" vertex="1" parent="1">
          <mxGeometry x="590" y="110" width="190" height="340" as="geometry" />
        </mxCell>
        <mxCell id="QapmDIWX8Hmy_j9o4d-7-4" value="成员管理" style="rounded=1;whiteSpace=wrap;html=1;" vertex="1" parent="1">
          <mxGeometry x="625" y="250" width="120" height="60" as="geometry" />
        </mxCell>
        <mxCell id="QapmDIWX8Hmy_j9o4d-7-5" value="账号管理" style="rounded=1;whiteSpace=wrap;html=1;" vertex="1" parent="1">
          <mxGeometry x="625" y="330" width="120" height="60" as="geometry" />
        </mxCell>
        <mxCell id="QapmDIWX8Hmy_j9o4d-7-6" value="空间管理" style="rounded=1;whiteSpace=wrap;html=1;" vertex="1" parent="1">
          <mxGeometry x="625" y="170" width="120" height="60" as="geometry" />
        </mxCell>
        <mxCell id="QapmDIWX8Hmy_j9o4d-7-7" value="平台" style="text;html=1;strokeColor=none;fillColor=none;align=center;verticalAlign=middle;whiteSpace=wrap;rounded=0;" vertex="1" parent="1">
          <mxGeometry x="665" y="410" width="40" height="20" as="geometry" />
        </mxCell>
        <mxCell id="QapmDIWX8Hmy_j9o4d-7-8" value="项目业务" style="text;html=1;strokeColor=none;fillColor=none;align=center;verticalAlign=middle;whiteSpace=wrap;rounded=0;" vertex="1" parent="1">
          <mxGeometry x="317.5" y="250" width="115" height="20" as="geometry" />
        </mxCell>
        <mxCell id="QapmDIWX8Hmy_j9o4d-7-9" value="项目字段" style="rounded=1;whiteSpace=wrap;html=1;" vertex="1" parent="1">
          <mxGeometry x="215" y="140" width="135" height="40" as="geometry" />
        </mxCell>
        <mxCell id="QapmDIWX8Hmy_j9o4d-7-10" value="" style="whiteSpace=wrap;html=1;rounded=1;" vertex="1" parent="1">
          <mxGeometry x="390" y="140" width="120" height="40" as="geometry" />
        </mxCell>
      </root>
    </mxGraphModel>
  </diagram>
</mxfile>
